<svg width="182" height="74" viewBox="0 0 182 74" fill="none" xmlns="http://www.w3.org/2000/svg">
<path d="M91 1C116.032 1 138.649 5.12765 154.97 11.7637C163.133 15.0827 169.672 19.0099 174.155 23.3193C178.635 27.6261 181 32.2488 181 37C181 41.7512 178.635 46.3739 174.155 50.6807C169.672 54.9901 163.133 58.9173 154.97 62.2363C138.649 68.8724 116.032 73 91 73C65.9675 73 43.3514 68.8724 27.0303 62.2363C18.8672 58.9173 12.3277 54.9901 7.84473 50.6807C3.36453 46.3739 1 41.7512 1 37C1 32.2488 3.36453 27.6261 7.84473 23.3193C12.3277 19.0099 18.8672 15.0827 27.0303 11.7637C43.3514 5.12765 65.9675 1 91 1Z" stroke="#04C8BE" stroke-width="2"/>
</svg>
