<svg width="127" height="145" viewBox="0 0 127 145" fill="none" xmlns="http://www.w3.org/2000/svg">
<path fill-rule="evenodd" clip-rule="evenodd" d="M106.707 72.5019L106.725 72.9393L106.776 73.3778L106.861 73.8185L106.978 74.2624L107.128 74.7107L107.309 75.1644L107.52 75.6243L107.763 76.0917L108.035 76.5673L108.337 77.0523L108.669 77.5475L109.029 78.0539L109.417 78.5725L109.833 79.1041L110.276 79.6496L110.745 80.21L111.24 80.786L111.76 81.3785L112.304 81.9883L112.871 82.6159L113.459 83.262L114.695 84.6122L115.339 85.317L115.999 86.042L116.67 86.7874L117.352 87.553L118.041 88.3386L118.734 89.1439L119.428 89.9682L120.12 90.8106L120.804 91.6701L121.477 92.5453L122.135 93.4346L122.773 94.3359L123.385 95.2472L123.967 96.1659L124.514 97.0892L125.019 98.014L125.478 98.9371L125.886 99.8548L126.237 100.764L126.528 101.659L126.752 102.538L126.907 103.397L126.99 104.23L126.996 105.035L126.925 105.808L126.774 106.544L126.543 107.242L126.232 107.898L125.843 108.511L125.377 109.077L124.836 109.595L124.223 110.065L123.543 110.486L122.8 110.859L121.998 111.182L121.144 111.458L120.241 111.688L119.297 111.873L118.316 112.016L117.305 112.119L116.269 112.185L115.213 112.216L114.144 112.214L113.065 112.184L111.981 112.128L110.897 112.049L109.817 111.95L108.744 111.833L107.682 111.703L106.633 111.56L105.6 111.408L104.585 111.25L103.591 111.087L102.617 110.921L101.666 110.755L100.739 110.59L98.9594 110.272L98.1073 110.122L97.2808 109.979L96.4798 109.844L95.7044 109.72L94.9542 109.606L94.229 109.504L93.5284 109.415L92.852 109.339L92.199 109.277L91.5691 109.23L90.9616 109.199L90.3758 109.183L89.8111 109.185L89.2667 109.203L88.742 109.239L88.2363 109.293L87.7487 109.365L87.2786 109.456L86.8252 109.567L86.3878 109.697L85.9657 109.848L85.5582 110.019L85.1644 110.212L84.7837 110.426L84.4153 110.661L84.0586 110.919L83.7127 111.2L83.377 111.504L83.0507 111.832L82.7332 112.183L82.4235 112.559L82.1212 112.96L81.8252 113.386L81.535 113.838L81.2498 114.316L80.9686 114.82L80.6908 115.351L80.4156 115.909L80.142 116.494L79.8693 117.107L79.5965 117.747L79.3227 118.416L79.047 119.111L78.7685 119.834L78.4862 120.585L78.199 121.362L77.906 122.165L76.9813 124.724L76.6542 125.623L76.3159 126.542L75.9652 127.479L75.6012 128.433L75.2226 129.4L74.8286 130.377L74.4181 131.362L73.9902 132.351L73.5441 133.339L73.0791 134.323L72.5945 135.297L72.09 136.256L71.5651 137.196L71.0198 138.109L70.454 138.991L69.8681 139.836L69.2626 140.636L68.6381 141.387L67.9958 142.081L67.3367 142.714L66.6624 143.279L65.9745 143.771L65.275 144.186L64.5659 144.519L63.8496 144.768L63.1284 144.929L62.4048 145L61.6814 144.981L60.9607 144.872L60.2453 144.673L59.5377 144.387L58.84 144.015L58.1546 143.562L57.4835 143.031L56.8285 142.427L56.191 141.755L55.5725 141.021L54.9741 140.231L54.3964 139.391L53.8402 138.507L53.3057 137.586L52.793 136.634L52.3021 135.656L51.8325 134.659L51.3838 133.648L50.9553 132.628L50.5463 131.605L50.1558 130.582L49.783 129.565L49.4266 128.555L49.0856 127.559L48.7589 126.577L48.4451 125.613L48.1432 124.669L47.8518 123.747L47.2958 121.977L47.0288 121.131L46.7676 120.313L46.5109 119.524L46.2576 118.763L46.0066 118.032L45.7567 117.332L45.5069 116.661L45.2561 116.021L45.0032 115.412L44.7471 114.833L44.4868 114.284L44.2213 113.767L43.9495 113.279L43.6704 112.822L43.3828 112.395L43.0856 111.998L42.7779 111.631L42.4584 111.294L42.1259 110.986L41.7792 110.709L41.417 110.462L41.038 110.246L40.6413 110.058L40.2262 109.899L39.7922 109.768L39.3388 109.662L38.8652 109.582L38.3709 109.525L37.8554 109.492L37.3178 109.481L36.7577 109.492L36.1744 109.523L35.5673 109.573L34.9359 109.643L34.2795 109.73L33.5978 109.835L32.8902 109.955L32.1564 110.09L31.396 110.239L30.6088 110.401L29.7947 110.575L28.9538 110.758L28.086 110.95L26.2716 111.354L25.3262 111.563L24.3564 111.773L23.3635 111.982L22.3489 112.189L21.3143 112.391L20.2619 112.586L19.194 112.77L18.1134 112.94L17.0233 113.095L15.9272 113.231L14.8289 113.344L13.7327 113.432L12.6431 113.491L11.5651 113.518L10.5039 113.511L9.46492 113.465L8.45369 113.379L7.47595 113.249L6.53743 113.074L5.64379 112.851L4.80056 112.579L4.01299 112.256L3.28601 111.881L2.62409 111.456L2.03117 110.979L1.5106 110.451L1.06502 109.875L0.696357 109.251L0.405776 108.582L0.193648 107.871L0.0595681 107.121L0.00236526 106.335L0.0201449 105.517L0.110339 104.67L0.269773 103.8L0.494741 102.91L0.781087 102.004L1.1243 101.085L1.51958 100.159L1.96196 99.2278L2.44635 98.296L2.96766 97.3664L3.52081 96.442L4.10083 95.5256L4.70291 94.6196L5.32244 93.7259L5.95504 92.8466L6.59656 91.983L7.24314 91.1364L7.89122 90.3079L8.53749 89.4982L9.17895 88.7079L9.81287 87.9374L10.4368 87.1867L11.0485 86.456L12.2277 85.0535L12.792 84.3812L13.3376 83.7276L13.8632 83.092L14.368 82.474L14.8512 81.8728L15.3119 81.2877L15.7497 80.718L16.1639 80.1628L16.5543 79.6214L16.9206 79.0929L17.2623 78.5764L17.5794 78.0712L17.8717 77.5764L18.1391 77.091L18.3815 76.6143L18.5989 76.1454L18.7911 75.6834L18.9583 75.2275L19.1003 74.7767L19.2173 74.3304L19.3091 73.8875L19.3758 73.4473L19.4175 73.0089L19.434 72.5715L19.4255 72.1343L19.3918 71.6963L19.3331 71.2568L19.2492 70.8148L19.1403 70.3697L19.0063 69.9204L18.8471 69.4662L18.6628 69.0062L18.4535 68.5396L18.219 68.0655L17.9596 67.583L17.6752 67.0913L17.366 66.5895L17.0321 66.0767L16.6736 65.5521L16.2909 65.0149L15.8842 64.4642L15.4539 63.8992L15.0004 63.3191L14.5243 62.7231L14.0263 62.1105L13.5072 61.4806L12.9679 60.8328L12.4094 60.1665L11.2405 58.7764L10.6331 58.052L10.0128 57.3077L9.38182 56.5434L8.74247 55.7594L8.09742 54.9559L7.44958 54.1333L6.80214 53.2924L6.1586 52.4341L5.52273 51.5596L4.89857 50.6703L4.29044 49.768L3.70288 48.8546L3.14064 47.9326L2.60864 47.0043L2.11194 46.0729L1.65562 45.1413L1.24479 44.213L0.884462 43.2917L0.579498 42.3811L0.33451 41.4852L0.153776 40.6081L0.041155 39.7538L0 38.9264L0.0330797 38.1298L0.14251 37.3677L0.329695 36.6438L0.59529 35.9612L0.939169 35.3227L1.36042 34.7309L1.85736 34.1877L2.42757 33.6946L3.06791 33.2524L3.77463 32.8618L4.54341 32.5226L5.36947 32.2342L6.24764 31.9955L7.17247 31.8052L8.13834 31.6612L9.13952 31.5614L10.1703 31.5032L11.225 31.4839L12.2982 31.5005L13.3846 31.5499L14.4793 31.629L15.5774 31.7345L16.6746 31.8634L17.7671 32.0123L18.851 32.1783L19.9233 32.3584L20.9809 32.5497L22.0214 32.7494L23.0426 32.955L24.0426 33.164L25.0199 33.3742L25.9732 33.5833L28.6802 34.1852L29.5298 34.3717L30.3524 34.5484L31.1482 34.7141L31.9171 34.8675L32.6593 35.0073L33.3752 35.1326L34.0652 35.2421L34.7295 35.335L35.3688 35.4104L35.9836 35.4672L36.5744 35.5046L37.1419 35.5217L37.6865 35.5177L38.2091 35.4917L38.7101 35.4427L39.1901 35.37L39.6499 35.2725L40.09 35.1492L40.5111 34.999L40.9136 34.8209L41.2982 34.6136L41.6656 34.3763L42.0171 34.1088L42.3539 33.8113L42.6775 33.4839L42.9888 33.1264L43.2892 32.739L43.5797 32.3215L43.8614 31.8738L44.1355 31.3959L44.4029 30.8876L44.6647 30.3489L44.922 29.7797L45.1758 29.18L45.4272 28.5497L45.6772 27.8889L45.9269 27.1978L46.1774 26.4766L46.4299 25.7256L46.6854 24.9453L46.945 24.1363L47.2101 23.2993L47.761 21.5454L48.0492 20.6311L48.3477 19.6941L48.6576 18.7362L48.9801 17.7598L49.3164 16.7673L49.6677 15.7618L50.0352 14.7464L50.42 13.7249L50.8229 12.7013L51.2451 11.6799L51.6873 10.6656L52.1502 9.66346L52.6343 8.67895L53.14 7.7178L53.6676 6.78599L54.2169 5.88966L54.7878 5.03507L55.3797 4.22848L55.9919 3.4761L56.6234 2.78395L57.273 2.15779L57.9392 1.60299L58.6203 1.12443L59.3142 0.726401L60.019 0.41251L60.7322 0.185609L61.4514 0.0477214L62.1743 0L62.8981 0.0427004L63.6203 0.175177L64.3384 0.395898L65.0501 0.702485L65.7529 1.09177L66.4447 1.55987L67.1235 2.10227L67.7876 2.71391L68.4354 3.38932L69.0657 4.1227L69.6773 4.90801L70.2695 5.73912L70.8417 6.60986L71.3936 7.51413L71.925 8.44596L72.436 9.39959L72.9269 10.3695L73.3981 11.3506L73.8501 12.3378L74.2837 13.3268L74.6996 14.3134L75.0988 15.2938L75.4822 16.2646L75.8508 17.2227L76.2056 18.1655L76.5477 19.0906L76.8783 19.996L77.1983 20.8799L77.8113 22.5776L78.1064 23.3891L78.3953 24.1746L78.6791 24.9335L78.9587 25.6653L79.2351 26.3697L79.5094 27.0465L79.7824 27.6957L80.0551 28.3173L80.3283 28.9113L80.6029 29.478L80.8798 30.0176L81.1598 30.5303L81.4437 31.0165L81.7322 31.4766L82.0262 31.9108L82.3265 32.3197L82.6337 32.7036L82.9487 33.0628L83.2721 33.398L83.6047 33.7094L83.9472 33.9975L84.3005 34.2627L84.665 34.5055L85.0417 34.7263L85.4313 34.9254L85.8344 35.1034L86.2518 35.2606L86.6842 35.3975L87.1324 35.5144L87.5971 35.6119L88.079 35.6902L88.5789 35.7499L89.0975 35.7914L89.6355 35.8152L90.1937 35.8218L90.7727 35.8116L91.3732 35.7852L91.9959 35.7431L92.6414 35.6861L93.3104 35.6146L94.0032 35.5295L94.7205 35.4315L95.4627 35.3215L96.2301 35.2003L97.0229 35.0689L97.8412 34.9285L98.6852 34.7802L101.368 34.3015L102.312 34.1358L103.278 33.9699L104.266 33.8057L105.275 33.6454L106.302 33.4912L107.346 33.3454L108.405 33.2106L109.474 33.0893L110.552 32.9843L111.636 32.8985L112.72 32.8347L113.801 32.796L114.874 32.7852L115.935 32.8055L116.977 32.8596L117.997 32.9503L118.988 33.0803L119.945 33.252L120.861 33.4675L121.732 33.7286L122.551 34.037L123.313 34.3936L124.014 34.799L124.648 35.2535L125.212 35.7567L125.703 36.3078L126.117 36.9054L126.453 37.5479L126.709 38.2328L126.885 38.9576L126.982 39.7191L127 40.514L126.942 41.3388L126.809 42.1896L126.607 43.0624L126.337 43.9533L126.004 44.8584L125.614 45.7736L125.171 46.6954L124.679 47.62L124.145 48.5442L123.574 49.4646L122.971 50.3785L122.341 51.2833L121.689 52.1766L121.02 53.0565L120.339 53.9212L119.649 54.7692L118.955 55.5993L118.262 56.4108L117.571 57.2027L116.886 57.9747L116.211 58.7265L115.548 59.458L114.899 60.1693L113.651 61.5319L113.056 62.1841L112.482 62.8176L111.931 63.4329L111.403 64.0308L110.9 64.612L110.422 65.1773L109.971 65.7275L109.546 66.2635L109.149 66.7861L108.78 67.2963L108.44 67.7949L108.128 68.2831L107.846 68.7616L107.594 69.2314L107.373 69.6937L107.182 70.1492L107.022 70.5991L106.895 71.0443L106.799 71.4859L106.737 71.925L106.709 72.3626L106.707 72.5019Z" fill="url(#paint0_linear_32_4401)"/>
<defs>
<linearGradient id="paint0_linear_32_4401" x1="-75.4134" y1="-28.8218" x2="-24.4223" y2="-162.242" gradientUnits="userSpaceOnUse">
<stop offset="0.735577" stop-color="#04C9BF"/>
<stop offset="0.9999" stop-color="#D9DBCF"/>
<stop offset="1" stop-color="#691AF0"/>
</linearGradient>
</defs>
</svg>
